<?xml version="1.0" encoding="UTF-8" standalone="no"?>
<!DOCTYPE svg PUBLIC "-//W3C//DTD SVG 1.1//EN"
 "http://www.w3.org/Graphics/SVG/1.1/DTD/svg11.dtd">
<!-- Generated by graphviz version 2.26.3 (20100126.1600)
 -->
<!-- Title: controllers_diagram Pages: 1 -->
<svg width="655pt" height="715pt"
 viewBox="0.00 0.00 655.00 715.00" xmlns="http://www.w3.org/2000/svg" xmlns:xlink="http://www.w3.org/1999/xlink">
<g id="graph1" class="graph" transform="scale(1 1) rotate(0) translate(4 711)">
<title>controllers_diagram</title>
<polygon fill="white" stroke="white" points="-4,5 -4,-711 652,-711 652,5 -4,5"/>
<!-- _diagram_info -->
<g id="node1" class="node"><title>_diagram_info</title>
<text text-anchor="start" x="66" y="-458.3" font-family="Times Roman,serif" font-size="13.00">Controllers diagram</text>
<text text-anchor="start" x="66" y="-441.3" font-family="Times Roman,serif" font-size="13.00">Date: May 28 2012 &#45; 20:16</text>
<text text-anchor="start" x="66" y="-424.3" font-family="Times Roman,serif" font-size="13.00">Migration version: 20120516085840</text>
<text text-anchor="start" x="66" y="-407.3" font-family="Times Roman,serif" font-size="13.00">Generated by RailRoady 1.0.7</text>
<text text-anchor="start" x="66" y="-390.3" font-family="Times Roman,serif" font-size="13.00">http://railroady.prestonlee.com</text>
</g>
<!-- ApplicationController -->
<g id="node2" class="node"><title>ApplicationController</title>
<polyline fill="none" stroke="black" points="355,-96.5 560,-96.5 "/>
<path fill="none" stroke="black" d="M560,-96.5C566,-96.5 572,-102.5 572,-108.5"/>
<polyline fill="none" stroke="black" points="572,-108.5 572,-204.5 "/>
<path fill="none" stroke="black" d="M572,-204.5C572,-210.5 566,-216.5 560,-216.5"/>
<polyline fill="none" stroke="black" points="560,-216.5 355,-216.5 "/>
<path fill="none" stroke="black" d="M355,-216.5C349,-216.5 343,-210.5 343,-204.5"/>
<polyline fill="none" stroke="black" points="343,-204.5 343,-108.5 "/>
<path fill="none" stroke="black" d="M343,-108.5C343,-102.5 349,-96.5 355,-96.5"/>
<text text-anchor="middle" x="457.5" y="-199.9" font-family="Times Roman,serif" font-size="14.00">ApplicationController</text>
<polyline fill="none" stroke="black" points="343,-190.5 572,-190.5 "/>
<text text-anchor="start" x="351" y="-173.9" font-family="Times Roman,serif" font-size="14.00">_one_time_conditions_valid_8?</text>
<polyline fill="none" stroke="black" points="343,-164.5 572,-164.5 "/>
<polyline fill="none" stroke="black" points="343,-140.5 572,-140.5 "/>
<text text-anchor="start" x="351" y="-123.9" font-family="Times Roman,serif" font-size="14.00">_layout</text>
<text text-anchor="start" x="351" y="-105.9" font-family="Times Roman,serif" font-size="14.00">current_cart</text>
</g>
<!-- CartsController -->
<g id="node3" class="node"><title>CartsController</title>
<polyline fill="none" stroke="black" points="13,-134.5 111,-134.5 "/>
<path fill="none" stroke="black" d="M111,-134.5C117,-134.5 123,-140.5 123,-146.5"/>
<polyline fill="none" stroke="black" points="123,-146.5 123,-332.5 "/>
<path fill="none" stroke="black" d="M123,-332.5C123,-338.5 117,-344.5 111,-344.5"/>
<polyline fill="none" stroke="black" points="111,-344.5 13,-344.5 "/>
<path fill="none" stroke="black" d="M13,-344.5C7,-344.5 1,-338.5 1,-332.5"/>
<polyline fill="none" stroke="black" points="1,-332.5 1,-146.5 "/>
<path fill="none" stroke="black" d="M1,-146.5C1,-140.5 7,-134.5 13,-134.5"/>
<text text-anchor="middle" x="62" y="-327.9" font-family="Times Roman,serif" font-size="14.00">CartsController</text>
<polyline fill="none" stroke="black" points="1,-318.5 123,-318.5 "/>
<text text-anchor="start" x="9" y="-301.9" font-family="Times Roman,serif" font-size="14.00">create</text>
<text text-anchor="start" x="9" y="-283.9" font-family="Times Roman,serif" font-size="14.00">destroy</text>
<text text-anchor="start" x="9" y="-265.9" font-family="Times Roman,serif" font-size="14.00">edit</text>
<text text-anchor="start" x="9" y="-247.9" font-family="Times Roman,serif" font-size="14.00">index</text>
<text text-anchor="start" x="9" y="-229.9" font-family="Times Roman,serif" font-size="14.00">new</text>
<text text-anchor="start" x="9" y="-211.9" font-family="Times Roman,serif" font-size="14.00">show</text>
<text text-anchor="start" x="9" y="-193.9" font-family="Times Roman,serif" font-size="14.00">update</text>
<polyline fill="none" stroke="black" points="1,-184.5 123,-184.5 "/>
<polyline fill="none" stroke="black" points="1,-160.5 123,-160.5 "/>
<text text-anchor="start" x="9" y="-143.9" font-family="Times Roman,serif" font-size="14.00">_layout</text>
</g>
<!-- LineItemsController -->
<g id="node4" class="node"><title>LineItemsController</title>
<polyline fill="none" stroke="black" points="355,-248.5 484,-248.5 "/>
<path fill="none" stroke="black" d="M484,-248.5C490,-248.5 496,-254.5 496,-260.5"/>
<polyline fill="none" stroke="black" points="496,-260.5 496,-446.5 "/>
<path fill="none" stroke="black" d="M496,-446.5C496,-452.5 490,-458.5 484,-458.5"/>
<polyline fill="none" stroke="black" points="484,-458.5 355,-458.5 "/>
<path fill="none" stroke="black" d="M355,-458.5C349,-458.5 343,-452.5 343,-446.5"/>
<polyline fill="none" stroke="black" points="343,-446.5 343,-260.5 "/>
<path fill="none" stroke="black" d="M343,-260.5C343,-254.5 349,-248.5 355,-248.5"/>
<text text-anchor="middle" x="419.5" y="-441.9" font-family="Times Roman,serif" font-size="14.00">LineItemsController</text>
<polyline fill="none" stroke="black" points="343,-432.5 496,-432.5 "/>
<text text-anchor="start" x="351" y="-415.9" font-family="Times Roman,serif" font-size="14.00">create</text>
<text text-anchor="start" x="351" y="-397.9" font-family="Times Roman,serif" font-size="14.00">destroy</text>
<text text-anchor="start" x="351" y="-379.9" font-family="Times Roman,serif" font-size="14.00">edit</text>
<text text-anchor="start" x="351" y="-361.9" font-family="Times Roman,serif" font-size="14.00">index</text>
<text text-anchor="start" x="351" y="-343.9" font-family="Times Roman,serif" font-size="14.00">new</text>
<text text-anchor="start" x="351" y="-325.9" font-family="Times Roman,serif" font-size="14.00">show</text>
<text text-anchor="start" x="351" y="-307.9" font-family="Times Roman,serif" font-size="14.00">update</text>
<polyline fill="none" stroke="black" points="343,-298.5 496,-298.5 "/>
<polyline fill="none" stroke="black" points="343,-274.5 496,-274.5 "/>
<text text-anchor="start" x="351" y="-257.9" font-family="Times Roman,serif" font-size="14.00">_layout</text>
</g>
<!-- OrdersController -->
<g id="node5" class="node"><title>OrdersController</title>
<polyline fill="none" stroke="black" points="526,-495.5 634,-495.5 "/>
<path fill="none" stroke="black" d="M634,-495.5C640,-495.5 646,-501.5 646,-507.5"/>
<polyline fill="none" stroke="black" points="646,-507.5 646,-693.5 "/>
<path fill="none" stroke="black" d="M646,-693.5C646,-699.5 640,-705.5 634,-705.5"/>
<polyline fill="none" stroke="black" points="634,-705.5 526,-705.5 "/>
<path fill="none" stroke="black" d="M526,-705.5C520,-705.5 514,-699.5 514,-693.5"/>
<polyline fill="none" stroke="black" points="514,-693.5 514,-507.5 "/>
<path fill="none" stroke="black" d="M514,-507.5C514,-501.5 520,-495.5 526,-495.5"/>
<text text-anchor="middle" x="580" y="-688.9" font-family="Times Roman,serif" font-size="14.00">OrdersController</text>
<polyline fill="none" stroke="black" points="514,-679.5 646,-679.5 "/>
<text text-anchor="start" x="522" y="-662.9" font-family="Times Roman,serif" font-size="14.00">create</text>
<text text-anchor="start" x="522" y="-644.9" font-family="Times Roman,serif" font-size="14.00">destroy</text>
<text text-anchor="start" x="522" y="-626.9" font-family="Times Roman,serif" font-size="14.00">edit</text>
<text text-anchor="start" x="522" y="-608.9" font-family="Times Roman,serif" font-size="14.00">index</text>
<text text-anchor="start" x="522" y="-590.9" font-family="Times Roman,serif" font-size="14.00">new</text>
<text text-anchor="start" x="522" y="-572.9" font-family="Times Roman,serif" font-size="14.00">show</text>
<text text-anchor="start" x="522" y="-554.9" font-family="Times Roman,serif" font-size="14.00">update</text>
<polyline fill="none" stroke="black" points="514,-545.5 646,-545.5 "/>
<polyline fill="none" stroke="black" points="514,-521.5 646,-521.5 "/>
<text text-anchor="start" x="522" y="-504.9" font-family="Times Roman,serif" font-size="14.00">_layout</text>
</g>
<!-- ProductsController -->
<g id="node6" class="node"><title>ProductsController</title>
<polyline fill="none" stroke="black" points="165,-77.5 287,-77.5 "/>
<path fill="none" stroke="black" d="M287,-77.5C293,-77.5 299,-83.5 299,-89.5"/>
<polyline fill="none" stroke="black" points="299,-89.5 299,-293.5 "/>
<path fill="none" stroke="black" d="M299,-293.5C299,-299.5 293,-305.5 287,-305.5"/>
<polyline fill="none" stroke="black" points="287,-305.5 165,-305.5 "/>
<path fill="none" stroke="black" d="M165,-305.5C159,-305.5 153,-299.5 153,-293.5"/>
<polyline fill="none" stroke="black" points="153,-293.5 153,-89.5 "/>
<path fill="none" stroke="black" d="M153,-89.5C153,-83.5 159,-77.5 165,-77.5"/>
<text text-anchor="middle" x="226" y="-288.9" font-family="Times Roman,serif" font-size="14.00">ProductsController</text>
<polyline fill="none" stroke="black" points="153,-279.5 299,-279.5 "/>
<text text-anchor="start" x="161" y="-262.9" font-family="Times Roman,serif" font-size="14.00">create</text>
<text text-anchor="start" x="161" y="-244.9" font-family="Times Roman,serif" font-size="14.00">destroy</text>
<text text-anchor="start" x="161" y="-226.9" font-family="Times Roman,serif" font-size="14.00">edit</text>
<text text-anchor="start" x="161" y="-208.9" font-family="Times Roman,serif" font-size="14.00">index</text>
<text text-anchor="start" x="161" y="-190.9" font-family="Times Roman,serif" font-size="14.00">new</text>
<text text-anchor="start" x="161" y="-172.9" font-family="Times Roman,serif" font-size="14.00">show</text>
<text text-anchor="start" x="161" y="-154.9" font-family="Times Roman,serif" font-size="14.00">update</text>
<text text-anchor="start" x="161" y="-136.9" font-family="Times Roman,serif" font-size="14.00">who_bought</text>
<polyline fill="none" stroke="black" points="153,-127.5 299,-127.5 "/>
<polyline fill="none" stroke="black" points="153,-103.5 299,-103.5 "/>
<text text-anchor="start" x="161" y="-86.9" font-family="Times Roman,serif" font-size="14.00">_layout</text>
</g>
<!-- StoreController -->
<g id="node7" class="node"><title>StoreController</title>
<polyline fill="none" stroke="black" points="13,-1.5 112,-1.5 "/>
<path fill="none" stroke="black" d="M112,-1.5C118,-1.5 124,-7.5 124,-13.5"/>
<polyline fill="none" stroke="black" points="124,-13.5 124,-91.5 "/>
<path fill="none" stroke="black" d="M124,-91.5C124,-97.5 118,-103.5 112,-103.5"/>
<polyline fill="none" stroke="black" points="112,-103.5 13,-103.5 "/>
<path fill="none" stroke="black" d="M13,-103.5C7,-103.5 1,-97.5 1,-91.5"/>
<polyline fill="none" stroke="black" points="1,-91.5 1,-13.5 "/>
<path fill="none" stroke="black" d="M1,-13.5C1,-7.5 7,-1.5 13,-1.5"/>
<text text-anchor="middle" x="62.5" y="-86.9" font-family="Times Roman,serif" font-size="14.00">StoreController</text>
<polyline fill="none" stroke="black" points="1,-77.5 124,-77.5 "/>
<text text-anchor="start" x="9" y="-60.9" font-family="Times Roman,serif" font-size="14.00">index</text>
<polyline fill="none" stroke="black" points="1,-51.5 124,-51.5 "/>
<polyline fill="none" stroke="black" points="1,-27.5 124,-27.5 "/>
<text text-anchor="start" x="9" y="-10.9" font-family="Times Roman,serif" font-size="14.00">_layout</text>
</g>
</g>
</svg>
