<?xml version="1.0" encoding="UTF-8" standalone="no"?>
<!DOCTYPE svg PUBLIC "-//W3C//DTD SVG 1.1//EN"
 "http://www.w3.org/Graphics/SVG/1.1/DTD/svg11.dtd">
<!-- Generated by graphviz version 2.26.3 (20100126.1600)
 -->
<!-- Title: controllers_diagram Pages: 1 -->
<svg width="1092pt" height="911pt"
 viewBox="0.00 0.00 1092.00 911.00" xmlns="http://www.w3.org/2000/svg" xmlns:xlink="http://www.w3.org/1999/xlink">
<g id="graph1" class="graph" transform="scale(1 1) rotate(0) translate(4 907)">
<title>controllers_diagram</title>
<polygon fill="white" stroke="white" points="-4,5 -4,-907 1089,-907 1089,5 -4,5"/>
<!-- _diagram_info -->
<g id="node1" class="node"><title>_diagram_info</title>
<text text-anchor="start" x="841" y="-858.3" font-family="Times Roman,serif" font-size="13.00">Controllers diagram</text>
<text text-anchor="start" x="841" y="-841.3" font-family="Times Roman,serif" font-size="13.00">Date: Jun 02 2012 &#45; 18:40</text>
<text text-anchor="start" x="841" y="-824.3" font-family="Times Roman,serif" font-size="13.00">Migration version: 20120602033452</text>
<text text-anchor="start" x="841" y="-807.3" font-family="Times Roman,serif" font-size="13.00">Generated by RailRoady 1.0.7</text>
<text text-anchor="start" x="841" y="-790.3" font-family="Times Roman,serif" font-size="13.00">http://railroady.prestonlee.com</text>
</g>
<!-- AdminController -->
<g id="node2" class="node"><title>AdminController</title>
<polyline fill="none" stroke="black" points="13,-781.5 227,-781.5 "/>
<path fill="none" stroke="black" d="M227,-781.5C233,-781.5 239,-787.5 239,-793.5"/>
<polyline fill="none" stroke="black" points="239,-793.5 239,-889.5 "/>
<path fill="none" stroke="black" d="M239,-889.5C239,-895.5 233,-901.5 227,-901.5"/>
<polyline fill="none" stroke="black" points="227,-901.5 13,-901.5 "/>
<path fill="none" stroke="black" d="M13,-901.5C7,-901.5 1,-895.5 1,-889.5"/>
<polyline fill="none" stroke="black" points="1,-889.5 1,-793.5 "/>
<path fill="none" stroke="black" d="M1,-793.5C1,-787.5 7,-781.5 13,-781.5"/>
<text text-anchor="middle" x="120" y="-884.9" font-family="Times Roman,serif" font-size="14.00">AdminController</text>
<polyline fill="none" stroke="black" points="1,-875.5 239,-875.5 "/>
<text text-anchor="start" x="9" y="-858.9" font-family="Times Roman,serif" font-size="14.00">_one_time_conditions_valid_14?</text>
<text text-anchor="start" x="9" y="-840.9" font-family="Times Roman,serif" font-size="14.00">index</text>
<polyline fill="none" stroke="black" points="1,-831.5 239,-831.5 "/>
<polyline fill="none" stroke="black" points="1,-807.5 239,-807.5 "/>
<text text-anchor="start" x="9" y="-790.9" font-family="Times Roman,serif" font-size="14.00">_layout</text>
</g>
<!-- ApplicationController -->
<g id="node3" class="node"><title>ApplicationController</title>
<polyline fill="none" stroke="black" points="585,-495.5 799,-495.5 "/>
<path fill="none" stroke="black" d="M799,-495.5C805,-495.5 811,-501.5 811,-507.5"/>
<polyline fill="none" stroke="black" points="811,-507.5 811,-731.5 "/>
<path fill="none" stroke="black" d="M811,-731.5C811,-737.5 805,-743.5 799,-743.5"/>
<polyline fill="none" stroke="black" points="799,-743.5 585,-743.5 "/>
<path fill="none" stroke="black" d="M585,-743.5C579,-743.5 573,-737.5 573,-731.5"/>
<polyline fill="none" stroke="black" points="573,-731.5 573,-507.5 "/>
<path fill="none" stroke="black" d="M573,-507.5C573,-501.5 579,-495.5 585,-495.5"/>
<text text-anchor="middle" x="692" y="-726.9" font-family="Times Roman,serif" font-size="14.00">ApplicationController</text>
<polyline fill="none" stroke="black" points="573,-717.5 811,-717.5 "/>
<text text-anchor="start" x="581" y="-700.9" font-family="Times Roman,serif" font-size="14.00">_one_time_conditions_valid_10?</text>
<text text-anchor="start" x="581" y="-682.9" font-family="Times Roman,serif" font-size="14.00">_one_time_conditions_valid_12?</text>
<text text-anchor="start" x="581" y="-664.9" font-family="Times Roman,serif" font-size="14.00">_one_time_conditions_valid_8?</text>
<text text-anchor="start" x="581" y="-646.9" font-family="Times Roman,serif" font-size="14.00">current_user</text>
<text text-anchor="start" x="581" y="-628.9" font-family="Times Roman,serif" font-size="14.00">login_as_admin</text>
<text text-anchor="start" x="581" y="-610.9" font-family="Times Roman,serif" font-size="14.00">login_as_common_user</text>
<text text-anchor="start" x="581" y="-592.9" font-family="Times Roman,serif" font-size="14.00">store_location</text>
<polyline fill="none" stroke="black" points="573,-583.5 811,-583.5 "/>
<text text-anchor="start" x="581" y="-566.9" font-family="Times Roman,serif" font-size="14.00">admin_authorize</text>
<text text-anchor="start" x="581" y="-548.9" font-family="Times Roman,serif" font-size="14.00">authorize</text>
<polyline fill="none" stroke="black" points="573,-539.5 811,-539.5 "/>
<text text-anchor="start" x="581" y="-522.9" font-family="Times Roman,serif" font-size="14.00">_layout</text>
<text text-anchor="start" x="581" y="-504.9" font-family="Times Roman,serif" font-size="14.00">current_cart</text>
</g>
<!-- CartsController -->
<g id="node4" class="node"><title>CartsController</title>
<polyline fill="none" stroke="black" points="299,-521.5 513,-521.5 "/>
<path fill="none" stroke="black" d="M513,-521.5C519,-521.5 525,-527.5 525,-533.5"/>
<polyline fill="none" stroke="black" points="525,-533.5 525,-755.5 "/>
<path fill="none" stroke="black" d="M525,-755.5C525,-761.5 519,-767.5 513,-767.5"/>
<polyline fill="none" stroke="black" points="513,-767.5 299,-767.5 "/>
<path fill="none" stroke="black" d="M299,-767.5C293,-767.5 287,-761.5 287,-755.5"/>
<polyline fill="none" stroke="black" points="287,-755.5 287,-533.5 "/>
<path fill="none" stroke="black" d="M287,-533.5C287,-527.5 293,-521.5 299,-521.5"/>
<text text-anchor="middle" x="406" y="-750.9" font-family="Times Roman,serif" font-size="14.00">CartsController</text>
<polyline fill="none" stroke="black" points="287,-741.5 525,-741.5 "/>
<text text-anchor="start" x="295" y="-724.9" font-family="Times Roman,serif" font-size="14.00">_one_time_conditions_valid_33?</text>
<text text-anchor="start" x="295" y="-706.9" font-family="Times Roman,serif" font-size="14.00">_one_time_conditions_valid_38?</text>
<text text-anchor="start" x="295" y="-688.9" font-family="Times Roman,serif" font-size="14.00">create</text>
<text text-anchor="start" x="295" y="-670.9" font-family="Times Roman,serif" font-size="14.00">destroy</text>
<text text-anchor="start" x="295" y="-652.9" font-family="Times Roman,serif" font-size="14.00">edit</text>
<text text-anchor="start" x="295" y="-634.9" font-family="Times Roman,serif" font-size="14.00">index</text>
<text text-anchor="start" x="295" y="-616.9" font-family="Times Roman,serif" font-size="14.00">new</text>
<text text-anchor="start" x="295" y="-598.9" font-family="Times Roman,serif" font-size="14.00">show</text>
<text text-anchor="start" x="295" y="-580.9" font-family="Times Roman,serif" font-size="14.00">update</text>
<polyline fill="none" stroke="black" points="287,-571.5 525,-571.5 "/>
<polyline fill="none" stroke="black" points="287,-547.5 525,-547.5 "/>
<text text-anchor="start" x="295" y="-530.9" font-family="Times Roman,serif" font-size="14.00">_layout</text>
</g>
<!-- LineItemsController -->
<g id="node5" class="node"><title>LineItemsController</title>
<polyline fill="none" stroke="black" points="13,-365.5 227,-365.5 "/>
<path fill="none" stroke="black" d="M227,-365.5C233,-365.5 239,-371.5 239,-377.5"/>
<polyline fill="none" stroke="black" points="239,-377.5 239,-599.5 "/>
<path fill="none" stroke="black" d="M239,-599.5C239,-605.5 233,-611.5 227,-611.5"/>
<polyline fill="none" stroke="black" points="227,-611.5 13,-611.5 "/>
<path fill="none" stroke="black" d="M13,-611.5C7,-611.5 1,-605.5 1,-599.5"/>
<polyline fill="none" stroke="black" points="1,-599.5 1,-377.5 "/>
<path fill="none" stroke="black" d="M1,-377.5C1,-371.5 7,-365.5 13,-365.5"/>
<text text-anchor="middle" x="120" y="-594.9" font-family="Times Roman,serif" font-size="14.00">LineItemsController</text>
<polyline fill="none" stroke="black" points="1,-585.5 239,-585.5 "/>
<text text-anchor="start" x="9" y="-568.9" font-family="Times Roman,serif" font-size="14.00">_one_time_conditions_valid_45?</text>
<text text-anchor="start" x="9" y="-550.9" font-family="Times Roman,serif" font-size="14.00">_one_time_conditions_valid_50?</text>
<text text-anchor="start" x="9" y="-532.9" font-family="Times Roman,serif" font-size="14.00">create</text>
<text text-anchor="start" x="9" y="-514.9" font-family="Times Roman,serif" font-size="14.00">destroy</text>
<text text-anchor="start" x="9" y="-496.9" font-family="Times Roman,serif" font-size="14.00">edit</text>
<text text-anchor="start" x="9" y="-478.9" font-family="Times Roman,serif" font-size="14.00">index</text>
<text text-anchor="start" x="9" y="-460.9" font-family="Times Roman,serif" font-size="14.00">new</text>
<text text-anchor="start" x="9" y="-442.9" font-family="Times Roman,serif" font-size="14.00">show</text>
<text text-anchor="start" x="9" y="-424.9" font-family="Times Roman,serif" font-size="14.00">update</text>
<polyline fill="none" stroke="black" points="1,-415.5 239,-415.5 "/>
<polyline fill="none" stroke="black" points="1,-391.5 239,-391.5 "/>
<text text-anchor="start" x="9" y="-374.9" font-family="Times Roman,serif" font-size="14.00">_layout</text>
</g>
<!-- OrdersController -->
<g id="node6" class="node"><title>OrdersController</title>
<polyline fill="none" stroke="black" points="13,-79.5 227,-79.5 "/>
<path fill="none" stroke="black" d="M227,-79.5C233,-79.5 239,-85.5 239,-91.5"/>
<polyline fill="none" stroke="black" points="239,-91.5 239,-313.5 "/>
<path fill="none" stroke="black" d="M239,-313.5C239,-319.5 233,-325.5 227,-325.5"/>
<polyline fill="none" stroke="black" points="227,-325.5 13,-325.5 "/>
<path fill="none" stroke="black" d="M13,-325.5C7,-325.5 1,-319.5 1,-313.5"/>
<polyline fill="none" stroke="black" points="1,-313.5 1,-91.5 "/>
<path fill="none" stroke="black" d="M1,-91.5C1,-85.5 7,-79.5 13,-79.5"/>
<text text-anchor="middle" x="120" y="-308.9" font-family="Times Roman,serif" font-size="14.00">OrdersController</text>
<polyline fill="none" stroke="black" points="1,-299.5 239,-299.5 "/>
<text text-anchor="start" x="9" y="-282.9" font-family="Times Roman,serif" font-size="14.00">_one_time_conditions_valid_71?</text>
<text text-anchor="start" x="9" y="-264.9" font-family="Times Roman,serif" font-size="14.00">_one_time_conditions_valid_76?</text>
<text text-anchor="start" x="9" y="-246.9" font-family="Times Roman,serif" font-size="14.00">create</text>
<text text-anchor="start" x="9" y="-228.9" font-family="Times Roman,serif" font-size="14.00">destroy</text>
<text text-anchor="start" x="9" y="-210.9" font-family="Times Roman,serif" font-size="14.00">edit</text>
<text text-anchor="start" x="9" y="-192.9" font-family="Times Roman,serif" font-size="14.00">index</text>
<text text-anchor="start" x="9" y="-174.9" font-family="Times Roman,serif" font-size="14.00">new</text>
<text text-anchor="start" x="9" y="-156.9" font-family="Times Roman,serif" font-size="14.00">show</text>
<text text-anchor="start" x="9" y="-138.9" font-family="Times Roman,serif" font-size="14.00">update</text>
<polyline fill="none" stroke="black" points="1,-129.5 239,-129.5 "/>
<polyline fill="none" stroke="black" points="1,-105.5 239,-105.5 "/>
<text text-anchor="start" x="9" y="-88.9" font-family="Times Roman,serif" font-size="14.00">_layout</text>
</g>
<!-- ProductsController -->
<g id="node7" class="node"><title>ProductsController</title>
<polyline fill="none" stroke="black" points="299,-235.5 522,-235.5 "/>
<path fill="none" stroke="black" d="M522,-235.5C528,-235.5 534,-241.5 534,-247.5"/>
<polyline fill="none" stroke="black" points="534,-247.5 534,-469.5 "/>
<path fill="none" stroke="black" d="M534,-469.5C534,-475.5 528,-481.5 522,-481.5"/>
<polyline fill="none" stroke="black" points="522,-481.5 299,-481.5 "/>
<path fill="none" stroke="black" d="M299,-481.5C293,-481.5 287,-475.5 287,-469.5"/>
<polyline fill="none" stroke="black" points="287,-469.5 287,-247.5 "/>
<path fill="none" stroke="black" d="M287,-247.5C287,-241.5 293,-235.5 299,-235.5"/>
<text text-anchor="middle" x="410.5" y="-464.9" font-family="Times Roman,serif" font-size="14.00">ProductsController</text>
<polyline fill="none" stroke="black" points="287,-455.5 534,-455.5 "/>
<text text-anchor="start" x="295" y="-438.9" font-family="Times Roman,serif" font-size="14.00">_one_time_conditions_valid_112?</text>
<text text-anchor="start" x="295" y="-420.9" font-family="Times Roman,serif" font-size="14.00">create</text>
<text text-anchor="start" x="295" y="-402.9" font-family="Times Roman,serif" font-size="14.00">destroy</text>
<text text-anchor="start" x="295" y="-384.9" font-family="Times Roman,serif" font-size="14.00">edit</text>
<text text-anchor="start" x="295" y="-366.9" font-family="Times Roman,serif" font-size="14.00">index</text>
<text text-anchor="start" x="295" y="-348.9" font-family="Times Roman,serif" font-size="14.00">new</text>
<text text-anchor="start" x="295" y="-330.9" font-family="Times Roman,serif" font-size="14.00">show</text>
<text text-anchor="start" x="295" y="-312.9" font-family="Times Roman,serif" font-size="14.00">update</text>
<text text-anchor="start" x="295" y="-294.9" font-family="Times Roman,serif" font-size="14.00">who_bought</text>
<polyline fill="none" stroke="black" points="287,-285.5 534,-285.5 "/>
<polyline fill="none" stroke="black" points="287,-261.5 534,-261.5 "/>
<text text-anchor="start" x="295" y="-244.9" font-family="Times Roman,serif" font-size="14.00">_layout</text>
</g>
<!-- SessionsController -->
<g id="node8" class="node"><title>SessionsController</title>
<polyline fill="none" stroke="black" points="299,-1.5 522,-1.5 "/>
<path fill="none" stroke="black" d="M522,-1.5C528,-1.5 534,-7.5 534,-13.5"/>
<polyline fill="none" stroke="black" points="534,-13.5 534,-163.5 "/>
<path fill="none" stroke="black" d="M534,-163.5C534,-169.5 528,-175.5 522,-175.5"/>
<polyline fill="none" stroke="black" points="522,-175.5 299,-175.5 "/>
<path fill="none" stroke="black" d="M299,-175.5C293,-175.5 287,-169.5 287,-163.5"/>
<polyline fill="none" stroke="black" points="287,-163.5 287,-13.5 "/>
<path fill="none" stroke="black" d="M287,-13.5C287,-7.5 293,-1.5 299,-1.5"/>
<text text-anchor="middle" x="410.5" y="-158.9" font-family="Times Roman,serif" font-size="14.00">SessionsController</text>
<polyline fill="none" stroke="black" points="287,-149.5 534,-149.5 "/>
<text text-anchor="start" x="295" y="-132.9" font-family="Times Roman,serif" font-size="14.00">_one_time_conditions_valid_114?</text>
<text text-anchor="start" x="295" y="-114.9" font-family="Times Roman,serif" font-size="14.00">create</text>
<text text-anchor="start" x="295" y="-96.9" font-family="Times Roman,serif" font-size="14.00">destroy</text>
<text text-anchor="start" x="295" y="-78.9" font-family="Times Roman,serif" font-size="14.00">new</text>
<text text-anchor="start" x="295" y="-60.9" font-family="Times Roman,serif" font-size="14.00">sign_up</text>
<polyline fill="none" stroke="black" points="287,-51.5 534,-51.5 "/>
<polyline fill="none" stroke="black" points="287,-27.5 534,-27.5 "/>
<text text-anchor="start" x="295" y="-10.9" font-family="Times Roman,serif" font-size="14.00">_layout</text>
</g>
<!-- StoreController -->
<g id="node9" class="node"><title>StoreController</title>
<polyline fill="none" stroke="black" points="585,-27.5 808,-27.5 "/>
<path fill="none" stroke="black" d="M808,-27.5C814,-27.5 820,-33.5 820,-39.5"/>
<polyline fill="none" stroke="black" points="820,-39.5 820,-135.5 "/>
<path fill="none" stroke="black" d="M820,-135.5C820,-141.5 814,-147.5 808,-147.5"/>
<polyline fill="none" stroke="black" points="808,-147.5 585,-147.5 "/>
<path fill="none" stroke="black" d="M585,-147.5C579,-147.5 573,-141.5 573,-135.5"/>
<polyline fill="none" stroke="black" points="573,-135.5 573,-39.5 "/>
<path fill="none" stroke="black" d="M573,-39.5C573,-33.5 579,-27.5 585,-27.5"/>
<text text-anchor="middle" x="696.5" y="-130.9" font-family="Times Roman,serif" font-size="14.00">StoreController</text>
<polyline fill="none" stroke="black" points="573,-121.5 820,-121.5 "/>
<text text-anchor="start" x="581" y="-104.9" font-family="Times Roman,serif" font-size="14.00">_one_time_conditions_valid_116?</text>
<text text-anchor="start" x="581" y="-86.9" font-family="Times Roman,serif" font-size="14.00">index</text>
<polyline fill="none" stroke="black" points="573,-77.5 820,-77.5 "/>
<polyline fill="none" stroke="black" points="573,-53.5 820,-53.5 "/>
<text text-anchor="start" x="581" y="-36.9" font-family="Times Roman,serif" font-size="14.00">_layout</text>
</g>
<!-- UsersController -->
<g id="node10" class="node"><title>UsersController</title>
<polyline fill="none" stroke="black" points="585,-209.5 808,-209.5 "/>
<path fill="none" stroke="black" d="M808,-209.5C814,-209.5 820,-215.5 820,-221.5"/>
<polyline fill="none" stroke="black" points="820,-221.5 820,-443.5 "/>
<path fill="none" stroke="black" d="M820,-443.5C820,-449.5 814,-455.5 808,-455.5"/>
<polyline fill="none" stroke="black" points="808,-455.5 585,-455.5 "/>
<path fill="none" stroke="black" d="M585,-455.5C579,-455.5 573,-449.5 573,-443.5"/>
<polyline fill="none" stroke="black" points="573,-443.5 573,-221.5 "/>
<path fill="none" stroke="black" d="M573,-221.5C573,-215.5 579,-209.5 585,-209.5"/>
<text text-anchor="middle" x="696.5" y="-438.9" font-family="Times Roman,serif" font-size="14.00">UsersController</text>
<polyline fill="none" stroke="black" points="573,-429.5 820,-429.5 "/>
<text text-anchor="start" x="581" y="-412.9" font-family="Times Roman,serif" font-size="14.00">_one_time_conditions_valid_143?</text>
<text text-anchor="start" x="581" y="-394.9" font-family="Times Roman,serif" font-size="14.00">_one_time_conditions_valid_148?</text>
<text text-anchor="start" x="581" y="-376.9" font-family="Times Roman,serif" font-size="14.00">create</text>
<text text-anchor="start" x="581" y="-358.9" font-family="Times Roman,serif" font-size="14.00">destroy</text>
<text text-anchor="start" x="581" y="-340.9" font-family="Times Roman,serif" font-size="14.00">edit</text>
<text text-anchor="start" x="581" y="-322.9" font-family="Times Roman,serif" font-size="14.00">index</text>
<text text-anchor="start" x="581" y="-304.9" font-family="Times Roman,serif" font-size="14.00">new</text>
<text text-anchor="start" x="581" y="-286.9" font-family="Times Roman,serif" font-size="14.00">show</text>
<text text-anchor="start" x="581" y="-268.9" font-family="Times Roman,serif" font-size="14.00">update</text>
<polyline fill="none" stroke="black" points="573,-259.5 820,-259.5 "/>
<polyline fill="none" stroke="black" points="573,-235.5 820,-235.5 "/>
<text text-anchor="start" x="581" y="-218.9" font-family="Times Roman,serif" font-size="14.00">_layout</text>
</g>
</g>
</svg>
