<?xml version="1.0" encoding="UTF-8" standalone="no"?>
<!DOCTYPE svg PUBLIC "-//W3C//DTD SVG 1.1//EN"
 "http://www.w3.org/Graphics/SVG/1.1/DTD/svg11.dtd">
<!-- Generated by graphviz version 2.26.3 (20100126.1600)
 -->
<!-- Title: models_diagram Pages: 1 -->
<svg width="646pt" height="476pt"
 viewBox="0.00 0.00 646.00 476.00" xmlns="http://www.w3.org/2000/svg" xmlns:xlink="http://www.w3.org/1999/xlink">
<g id="graph1" class="graph" transform="scale(1 1) rotate(0) translate(4 472)">
<title>models_diagram</title>
<polygon fill="white" stroke="white" points="-4,5 -4,-472 643,-472 643,5 -4,5"/>
<!-- _diagram_info -->
<g id="node1" class="node"><title>_diagram_info</title>
<text text-anchor="start" x="8" y="-426.8" font-family="Times Roman,serif" font-size="13.00">Models diagram</text>
<text text-anchor="start" x="8" y="-409.8" font-family="Times Roman,serif" font-size="13.00">Date: Jun 02 2012 &#45; 18:40</text>
<text text-anchor="start" x="8" y="-392.8" font-family="Times Roman,serif" font-size="13.00">Migration version: 20120602033452</text>
<text text-anchor="start" x="8" y="-375.8" font-family="Times Roman,serif" font-size="13.00">Generated by RailRoady 1.0.7</text>
<text text-anchor="start" x="8" y="-358.8" font-family="Times Roman,serif" font-size="13.00">http://railroady.prestonlee.com</text>
</g>
<!-- Cart -->
<g id="node2" class="node"><title>Cart</title>
<polyline fill="none" stroke="black" points="169.5,-172 310.5,-172 "/>
<path fill="none" stroke="black" d="M310.5,-172C316.5,-172 322.5,-178 322.5,-184"/>
<polyline fill="none" stroke="black" points="322.5,-184 322.5,-230 "/>
<path fill="none" stroke="black" d="M322.5,-230C322.5,-236 316.5,-242 310.5,-242"/>
<polyline fill="none" stroke="black" points="310.5,-242 169.5,-242 "/>
<path fill="none" stroke="black" d="M169.5,-242C163.5,-242 157.5,-236 157.5,-230"/>
<polyline fill="none" stroke="black" points="157.5,-230 157.5,-184 "/>
<path fill="none" stroke="black" d="M157.5,-184C157.5,-178 163.5,-172 169.5,-172"/>
<text text-anchor="middle" x="240" y="-225.4" font-family="Times Roman,serif" font-size="14.00">Cart</text>
<polyline fill="none" stroke="black" points="157.5,-216 322.5,-216 "/>
<text text-anchor="start" x="165.5" y="-199.4" font-family="Times Roman,serif" font-size="14.00">created_at :datetime</text>
<text text-anchor="start" x="165.5" y="-181.4" font-family="Times Roman,serif" font-size="14.00">updated_at :datetime</text>
</g>
<!-- LineItem -->
<g id="node3" class="node"><title>LineItem</title>
<polyline fill="none" stroke="black" points="279.5,-1 420.5,-1 "/>
<path fill="none" stroke="black" d="M420.5,-1C426.5,-1 432.5,-7 432.5,-13"/>
<polyline fill="none" stroke="black" points="432.5,-13 432.5,-77 "/>
<path fill="none" stroke="black" d="M432.5,-77C432.5,-83 426.5,-89 420.5,-89"/>
<polyline fill="none" stroke="black" points="420.5,-89 279.5,-89 "/>
<path fill="none" stroke="black" d="M279.5,-89C273.5,-89 267.5,-83 267.5,-77"/>
<polyline fill="none" stroke="black" points="267.5,-77 267.5,-13 "/>
<path fill="none" stroke="black" d="M267.5,-13C267.5,-7 273.5,-1 279.5,-1"/>
<text text-anchor="middle" x="350" y="-72.4" font-family="Times Roman,serif" font-size="14.00">LineItem</text>
<polyline fill="none" stroke="black" points="267.5,-63 432.5,-63 "/>
<text text-anchor="start" x="275.5" y="-46.4" font-family="Times Roman,serif" font-size="14.00">created_at :datetime</text>
<text text-anchor="start" x="275.5" y="-28.4" font-family="Times Roman,serif" font-size="14.00">updated_at :datetime</text>
<text text-anchor="start" x="275.5" y="-10.4" font-family="Times Roman,serif" font-size="14.00">quantity :integer</text>
</g>
<!-- Cart&#45;&gt;LineItem -->
<g id="edge2" class="edge"><title>Cart&#45;&gt;LineItem</title>
<path fill="none" stroke="#3bb947" d="M268.441,-165.114C282.432,-144.51 299.439,-119.462 314.296,-97.5828"/>
<ellipse fill="none" stroke="#3bb947" cx="266.115" cy="-168.539" rx="4.00002" ry="4.00002"/>
<polygon fill="#3bb947" stroke="#3bb947" points="314.469,-97.328 323.809,-91.5828 317.277,-93.1914 320.086,-89.0549 320.086,-89.0549 320.086,-89.0549 317.277,-93.1914 316.363,-86.527 314.469,-97.328 314.469,-97.328"/>
</g>
<!-- Order -->
<g id="node4" class="node"><title>Order</title>
<polyline fill="none" stroke="black" points="389.5,-127 530.5,-127 "/>
<path fill="none" stroke="black" d="M530.5,-127C536.5,-127 542.5,-133 542.5,-139"/>
<polyline fill="none" stroke="black" points="542.5,-139 542.5,-275 "/>
<path fill="none" stroke="black" d="M542.5,-275C542.5,-281 536.5,-287 530.5,-287"/>
<polyline fill="none" stroke="black" points="530.5,-287 389.5,-287 "/>
<path fill="none" stroke="black" d="M389.5,-287C383.5,-287 377.5,-281 377.5,-275"/>
<polyline fill="none" stroke="black" points="377.5,-275 377.5,-139 "/>
<path fill="none" stroke="black" d="M377.5,-139C377.5,-133 383.5,-127 389.5,-127"/>
<text text-anchor="middle" x="460" y="-270.4" font-family="Times Roman,serif" font-size="14.00">Order</text>
<polyline fill="none" stroke="black" points="377.5,-261 542.5,-261 "/>
<text text-anchor="start" x="385.5" y="-244.4" font-family="Times Roman,serif" font-size="14.00">name :string</text>
<text text-anchor="start" x="385.5" y="-226.4" font-family="Times Roman,serif" font-size="14.00">address :text</text>
<text text-anchor="start" x="385.5" y="-208.4" font-family="Times Roman,serif" font-size="14.00">email :string</text>
<text text-anchor="start" x="385.5" y="-190.4" font-family="Times Roman,serif" font-size="14.00">pay_type :string</text>
<text text-anchor="start" x="385.5" y="-172.4" font-family="Times Roman,serif" font-size="14.00">created_at :datetime</text>
<text text-anchor="start" x="385.5" y="-154.4" font-family="Times Roman,serif" font-size="14.00">updated_at :datetime</text>
<text text-anchor="start" x="385.5" y="-136.4" font-family="Times Roman,serif" font-size="14.00">user_name :string</text>
</g>
<!-- Order&#45;&gt;LineItem -->
<g id="edge4" class="edge"><title>Order&#45;&gt;LineItem</title>
<path fill="none" stroke="#acbf4b" d="M401.126,-120.294C395.918,-112.624 390.756,-105.023 385.829,-97.7671"/>
<ellipse fill="none" stroke="#acbf4b" cx="403.397" cy="-123.64" rx="4.00002" ry="4.00002"/>
<polygon fill="#acbf4b" stroke="#acbf4b" points="385.782,-97.6976 383.888,-86.8966 382.974,-93.5611 380.165,-89.4245 380.165,-89.4245 380.165,-89.4245 382.974,-93.5611 376.442,-91.9524 385.782,-97.6976 385.782,-97.6976"/>
</g>
<!-- Product -->
<g id="node5" class="node"><title>Product</title>
<polyline fill="none" stroke="black" points="279.5,-325 420.5,-325 "/>
<path fill="none" stroke="black" d="M420.5,-325C426.5,-325 432.5,-331 432.5,-337"/>
<polyline fill="none" stroke="black" points="432.5,-337 432.5,-455 "/>
<path fill="none" stroke="black" d="M432.5,-455C432.5,-461 426.5,-467 420.5,-467"/>
<polyline fill="none" stroke="black" points="420.5,-467 279.5,-467 "/>
<path fill="none" stroke="black" d="M279.5,-467C273.5,-467 267.5,-461 267.5,-455"/>
<polyline fill="none" stroke="black" points="267.5,-455 267.5,-337 "/>
<path fill="none" stroke="black" d="M267.5,-337C267.5,-331 273.5,-325 279.5,-325"/>
<text text-anchor="middle" x="350" y="-450.4" font-family="Times Roman,serif" font-size="14.00">Product</text>
<polyline fill="none" stroke="black" points="267.5,-441 432.5,-441 "/>
<text text-anchor="start" x="275.5" y="-424.4" font-family="Times Roman,serif" font-size="14.00">title :string</text>
<text text-anchor="start" x="275.5" y="-406.4" font-family="Times Roman,serif" font-size="14.00">description :text</text>
<text text-anchor="start" x="275.5" y="-388.4" font-family="Times Roman,serif" font-size="14.00">image_url :string</text>
<text text-anchor="start" x="275.5" y="-370.4" font-family="Times Roman,serif" font-size="14.00">price :decimal</text>
<text text-anchor="start" x="275.5" y="-352.4" font-family="Times Roman,serif" font-size="14.00">created_at :datetime</text>
<text text-anchor="start" x="275.5" y="-334.4" font-family="Times Roman,serif" font-size="14.00">updated_at :datetime</text>
</g>
<!-- Product&#45;&gt;LineItem -->
<g id="edge6" class="edge"><title>Product&#45;&gt;LineItem</title>
<path fill="none" stroke="#02fed1" d="M350,-316.966C350,-250.537 350,-157.357 350,-99.1223"/>
<ellipse fill="none" stroke="#02fed1" cx="350" cy="-320.97" rx="4" ry="4"/>
<polygon fill="#02fed1" stroke="#02fed1" points="350,-99.0242 354.5,-89.0241 350,-94.0242 350,-89.0242 350,-89.0242 350,-89.0242 350,-94.0242 345.5,-89.0242 350,-99.0242 350,-99.0242"/>
</g>
<!-- Product&#45;&gt;Order -->
<g id="edge8" class="edge"><title>Product&#45;&gt;Order</title>
<path fill="none" stroke="#150f32" d="M396.486,-316.128C400.302,-309.572 404.174,-302.92 408.025,-296.302"/>
<polygon fill="#150f32" stroke="#150f32" points="396.46,-316.174 387.54,-322.553 393.945,-320.495 391.43,-324.817 391.43,-324.817 391.43,-324.817 393.945,-320.495 395.319,-327.08 396.46,-316.174 396.46,-316.174"/>
<polygon fill="#150f32" stroke="#150f32" points="408.228,-295.954 417.147,-289.575 410.743,-291.632 413.258,-287.311 413.258,-287.311 413.258,-287.311 410.743,-291.632 409.369,-285.047 408.228,-295.954 408.228,-295.954"/>
</g>
<!-- User -->
<g id="node6" class="node"><title>User</title>
<polyline fill="none" stroke="black" points="462,-325 626,-325 "/>
<path fill="none" stroke="black" d="M626,-325C632,-325 638,-331 638,-337"/>
<polyline fill="none" stroke="black" points="638,-337 638,-455 "/>
<path fill="none" stroke="black" d="M638,-455C638,-461 632,-467 626,-467"/>
<polyline fill="none" stroke="black" points="626,-467 462,-467 "/>
<path fill="none" stroke="black" d="M462,-467C456,-467 450,-461 450,-455"/>
<polyline fill="none" stroke="black" points="450,-455 450,-337 "/>
<path fill="none" stroke="black" d="M450,-337C450,-331 456,-325 462,-325"/>
<text text-anchor="middle" x="544" y="-450.4" font-family="Times Roman,serif" font-size="14.00">User</text>
<polyline fill="none" stroke="black" points="450,-441 638,-441 "/>
<text text-anchor="start" x="458" y="-424.4" font-family="Times Roman,serif" font-size="14.00">name :string</text>
<text text-anchor="start" x="458" y="-406.4" font-family="Times Roman,serif" font-size="14.00">hashed_password :string</text>
<text text-anchor="start" x="458" y="-388.4" font-family="Times Roman,serif" font-size="14.00">salt :string</text>
<text text-anchor="start" x="458" y="-370.4" font-family="Times Roman,serif" font-size="14.00">created_at :datetime</text>
<text text-anchor="start" x="458" y="-352.4" font-family="Times Roman,serif" font-size="14.00">updated_at :datetime</text>
<text text-anchor="start" x="458" y="-334.4" font-family="Times Roman,serif" font-size="14.00">role :string</text>
</g>
<!-- User&#45;&gt;Order -->
<g id="edge10" class="edge"><title>User&#45;&gt;Order</title>
<path fill="none" stroke="#93f9b3" d="M509.02,-317.295C505.993,-310.484 502.915,-303.56 499.854,-296.67"/>
<ellipse fill="none" stroke="#93f9b3" cx="510.738" cy="-321.161" rx="4.00002" ry="4.00002"/>
<polygon fill="#93f9b3" stroke="#93f9b3" points="499.755,-296.449 499.806,-285.483 497.724,-291.88 495.694,-287.311 495.694,-287.311 495.694,-287.311 497.724,-291.88 491.582,-289.139 499.755,-296.449 499.755,-296.449"/>
</g>
</g>
</svg>
