<?xml version="1.0" encoding="UTF-8" standalone="no"?>
<!DOCTYPE svg PUBLIC "-//W3C//DTD SVG 1.1//EN"
 "http://www.w3.org/Graphics/SVG/1.1/DTD/svg11.dtd">
<!-- Generated by graphviz version 2.26.3 (20100126.1600)
 -->
<!-- Title: models_diagram Pages: 1 -->
<svg width="495pt" height="458pt"
 viewBox="0.00 0.00 495.00 458.00" xmlns="http://www.w3.org/2000/svg" xmlns:xlink="http://www.w3.org/1999/xlink">
<g id="graph1" class="graph" transform="scale(1 1) rotate(0) translate(4 454)">
<title>models_diagram</title>
<polygon fill="white" stroke="white" points="-4,5 -4,-454 492,-454 492,5 -4,5"/>
<!-- _diagram_info -->
<g id="node1" class="node"><title>_diagram_info</title>
<text text-anchor="start" x="8" y="-408.8" font-family="Times Roman,serif" font-size="13.00">Models diagram</text>
<text text-anchor="start" x="8" y="-391.8" font-family="Times Roman,serif" font-size="13.00">Date: May 28 2012 &#45; 20:16</text>
<text text-anchor="start" x="8" y="-374.8" font-family="Times Roman,serif" font-size="13.00">Migration version: 20120516085840</text>
<text text-anchor="start" x="8" y="-357.8" font-family="Times Roman,serif" font-size="13.00">Generated by RailRoady 1.0.7</text>
<text text-anchor="start" x="8" y="-340.8" font-family="Times Roman,serif" font-size="13.00">http://railroady.prestonlee.com</text>
</g>
<!-- Cart -->
<g id="node2" class="node"><title>Cart</title>
<polyline fill="none" stroke="black" points="114.5,-163 255.5,-163 "/>
<path fill="none" stroke="black" d="M255.5,-163C261.5,-163 267.5,-169 267.5,-175"/>
<polyline fill="none" stroke="black" points="267.5,-175 267.5,-221 "/>
<path fill="none" stroke="black" d="M267.5,-221C267.5,-227 261.5,-233 255.5,-233"/>
<polyline fill="none" stroke="black" points="255.5,-233 114.5,-233 "/>
<path fill="none" stroke="black" d="M114.5,-233C108.5,-233 102.5,-227 102.5,-221"/>
<polyline fill="none" stroke="black" points="102.5,-221 102.5,-175 "/>
<path fill="none" stroke="black" d="M102.5,-175C102.5,-169 108.5,-163 114.5,-163"/>
<text text-anchor="middle" x="185" y="-216.4" font-family="Times Roman,serif" font-size="14.00">Cart</text>
<polyline fill="none" stroke="black" points="102.5,-207 267.5,-207 "/>
<text text-anchor="start" x="110.5" y="-190.4" font-family="Times Roman,serif" font-size="14.00">created_at :datetime</text>
<text text-anchor="start" x="110.5" y="-172.4" font-family="Times Roman,serif" font-size="14.00">updated_at :datetime</text>
</g>
<!-- LineItem -->
<g id="node3" class="node"><title>LineItem</title>
<polyline fill="none" stroke="black" points="224.5,-1 365.5,-1 "/>
<path fill="none" stroke="black" d="M365.5,-1C371.5,-1 377.5,-7 377.5,-13"/>
<polyline fill="none" stroke="black" points="377.5,-13 377.5,-77 "/>
<path fill="none" stroke="black" d="M377.5,-77C377.5,-83 371.5,-89 365.5,-89"/>
<polyline fill="none" stroke="black" points="365.5,-89 224.5,-89 "/>
<path fill="none" stroke="black" d="M224.5,-89C218.5,-89 212.5,-83 212.5,-77"/>
<polyline fill="none" stroke="black" points="212.5,-77 212.5,-13 "/>
<path fill="none" stroke="black" d="M212.5,-13C212.5,-7 218.5,-1 224.5,-1"/>
<text text-anchor="middle" x="295" y="-72.4" font-family="Times Roman,serif" font-size="14.00">LineItem</text>
<polyline fill="none" stroke="black" points="212.5,-63 377.5,-63 "/>
<text text-anchor="start" x="220.5" y="-46.4" font-family="Times Roman,serif" font-size="14.00">created_at :datetime</text>
<text text-anchor="start" x="220.5" y="-28.4" font-family="Times Roman,serif" font-size="14.00">updated_at :datetime</text>
<text text-anchor="start" x="220.5" y="-10.4" font-family="Times Roman,serif" font-size="14.00">quantity :integer</text>
</g>
<!-- Cart&#45;&gt;LineItem -->
<g id="edge2" class="edge"><title>Cart&#45;&gt;LineItem</title>
<path fill="none" stroke="#a679d1" d="M214.97,-156.314C227.987,-138.209 243.381,-116.797 257.174,-97.6129"/>
<ellipse fill="none" stroke="#a679d1" cx="212.571" cy="-159.651" rx="4.00002" ry="4.00002"/>
<polygon fill="#a679d1" stroke="#a679d1" points="257.341,-97.3797 266.833,-91.8872 260.26,-93.3201 263.179,-89.2604 263.179,-89.2604 263.179,-89.2604 260.26,-93.3201 259.525,-86.6335 257.341,-97.3797 257.341,-97.3797"/>
</g>
<!-- Order -->
<g id="node4" class="node"><title>Order</title>
<polyline fill="none" stroke="black" points="334.5,-127 475.5,-127 "/>
<path fill="none" stroke="black" d="M475.5,-127C481.5,-127 487.5,-133 487.5,-139"/>
<polyline fill="none" stroke="black" points="487.5,-139 487.5,-257 "/>
<path fill="none" stroke="black" d="M487.5,-257C487.5,-263 481.5,-269 475.5,-269"/>
<polyline fill="none" stroke="black" points="475.5,-269 334.5,-269 "/>
<path fill="none" stroke="black" d="M334.5,-269C328.5,-269 322.5,-263 322.5,-257"/>
<polyline fill="none" stroke="black" points="322.5,-257 322.5,-139 "/>
<path fill="none" stroke="black" d="M322.5,-139C322.5,-133 328.5,-127 334.5,-127"/>
<text text-anchor="middle" x="405" y="-252.4" font-family="Times Roman,serif" font-size="14.00">Order</text>
<polyline fill="none" stroke="black" points="322.5,-243 487.5,-243 "/>
<text text-anchor="start" x="330.5" y="-226.4" font-family="Times Roman,serif" font-size="14.00">name :string</text>
<text text-anchor="start" x="330.5" y="-208.4" font-family="Times Roman,serif" font-size="14.00">address :text</text>
<text text-anchor="start" x="330.5" y="-190.4" font-family="Times Roman,serif" font-size="14.00">email :string</text>
<text text-anchor="start" x="330.5" y="-172.4" font-family="Times Roman,serif" font-size="14.00">pay_type :string</text>
<text text-anchor="start" x="330.5" y="-154.4" font-family="Times Roman,serif" font-size="14.00">created_at :datetime</text>
<text text-anchor="start" x="330.5" y="-136.4" font-family="Times Roman,serif" font-size="14.00">updated_at :datetime</text>
</g>
<!-- Order&#45;&gt;LineItem -->
<g id="edge4" class="edge"><title>Order&#45;&gt;LineItem</title>
<path fill="none" stroke="#798924" d="M349.112,-120.265C343.624,-112.632 338.148,-105.015 332.902,-97.7182"/>
<ellipse fill="none" stroke="#798924" cx="351.529" cy="-123.627" rx="4.00002" ry="4.00002"/>
<polygon fill="#798924" stroke="#798924" points="332.7,-97.4375 330.516,-86.6913 329.781,-93.3778 326.863,-89.3181 326.863,-89.3181 326.863,-89.3181 329.781,-93.3778 323.209,-91.945 332.7,-97.4375 332.7,-97.4375"/>
</g>
<!-- Product -->
<g id="node5" class="node"><title>Product</title>
<polyline fill="none" stroke="black" points="279.5,-307 420.5,-307 "/>
<path fill="none" stroke="black" d="M420.5,-307C426.5,-307 432.5,-313 432.5,-319"/>
<polyline fill="none" stroke="black" points="432.5,-319 432.5,-437 "/>
<path fill="none" stroke="black" d="M432.5,-437C432.5,-443 426.5,-449 420.5,-449"/>
<polyline fill="none" stroke="black" points="420.5,-449 279.5,-449 "/>
<path fill="none" stroke="black" d="M279.5,-449C273.5,-449 267.5,-443 267.5,-437"/>
<polyline fill="none" stroke="black" points="267.5,-437 267.5,-319 "/>
<path fill="none" stroke="black" d="M267.5,-319C267.5,-313 273.5,-307 279.5,-307"/>
<text text-anchor="middle" x="350" y="-432.4" font-family="Times Roman,serif" font-size="14.00">Product</text>
<polyline fill="none" stroke="black" points="267.5,-423 432.5,-423 "/>
<text text-anchor="start" x="275.5" y="-406.4" font-family="Times Roman,serif" font-size="14.00">title :string</text>
<text text-anchor="start" x="275.5" y="-388.4" font-family="Times Roman,serif" font-size="14.00">description :text</text>
<text text-anchor="start" x="275.5" y="-370.4" font-family="Times Roman,serif" font-size="14.00">image_url :string</text>
<text text-anchor="start" x="275.5" y="-352.4" font-family="Times Roman,serif" font-size="14.00">price :decimal</text>
<text text-anchor="start" x="275.5" y="-334.4" font-family="Times Roman,serif" font-size="14.00">created_at :datetime</text>
<text text-anchor="start" x="275.5" y="-316.4" font-family="Times Roman,serif" font-size="14.00">updated_at :datetime</text>
</g>
<!-- Product&#45;&gt;LineItem -->
<g id="edge6" class="edge"><title>Product&#45;&gt;LineItem</title>
<path fill="none" stroke="#ab0e3a" d="M321.336,-299.148C318.509,-289.423 315.965,-279.547 314,-270 302.17,-212.528 297.679,-145.344 295.988,-99.4525"/>
<ellipse fill="none" stroke="#ab0e3a" cx="322.511" cy="-303.074" rx="4.00001" ry="4.00001"/>
<polygon fill="#ab0e3a" stroke="#ab0e3a" points="295.987,-99.4132 300.148,-89.2676 295.819,-94.416 295.651,-89.4189 295.651,-89.4189 295.651,-89.4189 295.819,-94.416 291.153,-89.5702 295.987,-99.4132 295.987,-99.4132"/>
</g>
<!-- Product&#45;&gt;Order -->
<g id="edge8" class="edge"><title>Product&#45;&gt;Order</title>
<path fill="none" stroke="#b7e295" d="M374.689,-297.2C376.515,-291.223 378.359,-285.19 380.186,-279.21"/>
<polygon fill="#b7e295" stroke="#b7e295" points="374.66,-297.296 367.434,-305.544 373.199,-302.077 371.737,-306.859 371.737,-306.859 371.737,-306.859 373.199,-302.077 376.041,-308.174 374.66,-297.296 374.66,-297.296"/>
<polygon fill="#b7e295" stroke="#b7e295" points="380.318,-278.777 387.544,-270.528 381.779,-273.995 383.24,-269.213 383.24,-269.213 383.24,-269.213 381.779,-273.995 378.937,-267.898 380.318,-278.777 380.318,-278.777"/>
</g>
</g>
</svg>
