<?xml version="1.0" encoding="UTF-8" standalone="no"?>
<!DOCTYPE svg PUBLIC "-//W3C//DTD SVG 1.1//EN"
 "http://www.w3.org/Graphics/SVG/1.1/DTD/svg11.dtd">
<!-- Generated by graphviz version 2.26.3 (20100126.1600)
 -->
<!-- Title: models_diagram Pages: 1 -->
<svg width="397pt" height="250pt"
 viewBox="0.00 0.00 397.00 250.00" xmlns="http://www.w3.org/2000/svg" xmlns:xlink="http://www.w3.org/1999/xlink">
<g id="graph1" class="graph" transform="scale(1 1) rotate(0) translate(4 246)">
<title>models_diagram</title>
<polygon fill="white" stroke="white" points="-4,5 -4,-246 394,-246 394,5 -4,5"/>
<!-- _diagram_info -->
<g id="node1" class="node"><title>_diagram_info</title>
<text text-anchor="start" x="8" y="-225.8" font-family="Times Roman,serif" font-size="13.00">Models diagram</text>
<text text-anchor="start" x="8" y="-208.8" font-family="Times Roman,serif" font-size="13.00">Date: May 28 2012 &#45; 20:16</text>
<text text-anchor="start" x="8" y="-191.8" font-family="Times Roman,serif" font-size="13.00">Migration version: 20120516085840</text>
<text text-anchor="start" x="8" y="-174.8" font-family="Times Roman,serif" font-size="13.00">Generated by RailRoady 1.0.7</text>
<text text-anchor="start" x="8" y="-157.8" font-family="Times Roman,serif" font-size="13.00">http://railroady.prestonlee.com</text>
</g>
<!-- Cart -->
<g id="node2" class="node"><title>Cart</title>
<ellipse fill="none" stroke="black" cx="222" cy="-93" rx="33.234" ry="18.3848"/>
<text text-anchor="middle" x="222" y="-89.4" font-family="Times Roman,serif" font-size="14.00">Cart</text>
</g>
<!-- LineItem -->
<g id="node3" class="node"><title>LineItem</title>
<ellipse fill="none" stroke="black" cx="283" cy="-19" rx="53.9477" ry="18.3848"/>
<text text-anchor="middle" x="283" y="-15.4" font-family="Times Roman,serif" font-size="14.00">LineItem</text>
</g>
<!-- Cart&#45;&gt;LineItem -->
<g id="edge2" class="edge"><title>Cart&#45;&gt;LineItem</title>
<path fill="none" stroke="#bb5c4e" d="M241.364,-69.5093C247.903,-61.5765 255.234,-52.6835 261.901,-44.596"/>
<ellipse fill="none" stroke="#bb5c4e" cx="238.692" cy="-72.7504" rx="4.00002" ry="4.00002"/>
<polygon fill="#bb5c4e" stroke="#bb5c4e" points="261.931,-44.5589 271.764,-39.7049 265.112,-40.7007 268.292,-36.8426 268.292,-36.8426 268.292,-36.8426 265.112,-40.7007 264.82,-33.9802 261.931,-44.5589 261.931,-44.5589"/>
</g>
<!-- Order -->
<g id="node4" class="node"><title>Order</title>
<ellipse fill="none" stroke="black" cx="350" cy="-93" rx="39.0967" ry="18.3848"/>
<text text-anchor="middle" x="350" y="-89.4" font-family="Times Roman,serif" font-size="14.00">Order</text>
</g>
<!-- Order&#45;&gt;LineItem -->
<g id="edge4" class="edge"><title>Order&#45;&gt;LineItem</title>
<path fill="none" stroke="#178b26" d="M329.002,-69.8082C321.699,-61.7421 313.47,-52.6539 306.013,-44.4174"/>
<ellipse fill="none" stroke="#178b26" cx="331.776" cy="-72.8717" rx="4.00002" ry="4.00002"/>
<polygon fill="#178b26" stroke="#178b26" points="305.867,-44.2556 302.491,-33.8223 302.511,-40.5491 299.155,-36.8426 299.155,-36.8426 299.155,-36.8426 302.511,-40.5491 295.819,-39.8629 305.867,-44.2556 305.867,-44.2556"/>
</g>
<!-- Product -->
<g id="node5" class="node"><title>Product</title>
<ellipse fill="none" stroke="black" cx="317" cy="-195" rx="48.9975" ry="18.3848"/>
<text text-anchor="middle" x="317" y="-191.4" font-family="Times Roman,serif" font-size="14.00">Product</text>
</g>
<!-- Product&#45;&gt;LineItem -->
<g id="edge6" class="edge"><title>Product&#45;&gt;LineItem</title>
<path fill="none" stroke="#39c78b" d="M311.858,-168.381C305.57,-135.832 294.97,-80.9614 288.516,-47.5551"/>
<ellipse fill="none" stroke="#39c78b" cx="312.667" cy="-172.57" rx="4.00001" ry="4.00001"/>
<polygon fill="#39c78b" stroke="#39c78b" points="288.474,-47.3371 290.996,-36.665 287.526,-42.4279 286.577,-37.5186 286.577,-37.5186 286.577,-37.5186 287.526,-42.4279 282.159,-38.3722 288.474,-47.3371 288.474,-47.3371"/>
</g>
<!-- Product&#45;&gt;Order -->
<g id="edge8" class="edge"><title>Product&#45;&gt;Order</title>
<path fill="none" stroke="#1eacdd" d="M326.205,-166.548C330.779,-152.411 336.289,-135.379 340.855,-121.266"/>
<polygon fill="#1eacdd" stroke="#1eacdd" points="326.131,-166.777 318.771,-174.906 324.592,-171.534 323.053,-176.292 323.053,-176.292 323.053,-176.292 324.592,-171.534 327.334,-177.677 326.131,-166.777 326.131,-166.777"/>
<polygon fill="#1eacdd" stroke="#1eacdd" points="340.907,-121.104 348.267,-112.975 342.447,-116.347 343.986,-111.59 343.986,-111.59 343.986,-111.59 342.447,-116.347 339.704,-110.205 340.907,-121.104 340.907,-121.104"/>
</g>
</g>
</svg>
