<?xml version="1.0" encoding="UTF-8" standalone="no"?>
<!DOCTYPE svg PUBLIC "-//W3C//DTD SVG 1.1//EN"
 "http://www.w3.org/Graphics/SVG/1.1/DTD/svg11.dtd">
<!-- Generated by graphviz version 2.26.3 (20100126.1600)
 -->
<!-- Title: models_diagram Pages: 1 -->
<svg width="460pt" height="250pt"
 viewBox="0.00 0.00 460.00 250.00" xmlns="http://www.w3.org/2000/svg" xmlns:xlink="http://www.w3.org/1999/xlink">
<g id="graph1" class="graph" transform="scale(1 1) rotate(0) translate(4 246)">
<title>models_diagram</title>
<polygon fill="white" stroke="white" points="-4,5 -4,-246 457,-246 457,5 -4,5"/>
<!-- _diagram_info -->
<g id="node1" class="node"><title>_diagram_info</title>
<text text-anchor="start" x="8" y="-225.8" font-family="Times Roman,serif" font-size="13.00">Models diagram</text>
<text text-anchor="start" x="8" y="-208.8" font-family="Times Roman,serif" font-size="13.00">Date: Jun 02 2012 &#45; 18:40</text>
<text text-anchor="start" x="8" y="-191.8" font-family="Times Roman,serif" font-size="13.00">Migration version: 20120602033452</text>
<text text-anchor="start" x="8" y="-174.8" font-family="Times Roman,serif" font-size="13.00">Generated by RailRoady 1.0.7</text>
<text text-anchor="start" x="8" y="-157.8" font-family="Times Roman,serif" font-size="13.00">http://railroady.prestonlee.com</text>
</g>
<!-- Cart -->
<g id="node2" class="node"><title>Cart</title>
<ellipse fill="none" stroke="black" cx="256" cy="-93" rx="33.234" ry="18.3848"/>
<text text-anchor="middle" x="256" y="-89.4" font-family="Times Roman,serif" font-size="14.00">Cart</text>
</g>
<!-- LineItem -->
<g id="node3" class="node"><title>LineItem</title>
<ellipse fill="none" stroke="black" cx="317" cy="-19" rx="53.9477" ry="18.3848"/>
<text text-anchor="middle" x="317" y="-15.4" font-family="Times Roman,serif" font-size="14.00">LineItem</text>
</g>
<!-- Cart&#45;&gt;LineItem -->
<g id="edge2" class="edge"><title>Cart&#45;&gt;LineItem</title>
<path fill="none" stroke="#55be50" d="M275.364,-69.5093C281.903,-61.5765 289.234,-52.6835 295.901,-44.596"/>
<ellipse fill="none" stroke="#55be50" cx="272.692" cy="-72.7504" rx="4.00002" ry="4.00002"/>
<polygon fill="#55be50" stroke="#55be50" points="295.931,-44.5589 305.764,-39.7049 299.112,-40.7007 302.292,-36.8426 302.292,-36.8426 302.292,-36.8426 299.112,-40.7007 298.82,-33.9802 295.931,-44.5589 295.931,-44.5589"/>
</g>
<!-- Order -->
<g id="node4" class="node"><title>Order</title>
<ellipse fill="none" stroke="black" cx="384" cy="-93" rx="39.0967" ry="18.3848"/>
<text text-anchor="middle" x="384" y="-89.4" font-family="Times Roman,serif" font-size="14.00">Order</text>
</g>
<!-- Order&#45;&gt;LineItem -->
<g id="edge4" class="edge"><title>Order&#45;&gt;LineItem</title>
<path fill="none" stroke="#dacbaf" d="M363.002,-69.8082C355.699,-61.7421 347.47,-52.6539 340.013,-44.4174"/>
<ellipse fill="none" stroke="#dacbaf" cx="365.776" cy="-72.8717" rx="4.00002" ry="4.00002"/>
<polygon fill="#dacbaf" stroke="#dacbaf" points="339.867,-44.2556 336.491,-33.8223 336.511,-40.5491 333.155,-36.8426 333.155,-36.8426 333.155,-36.8426 336.511,-40.5491 329.819,-39.8629 339.867,-44.2556 339.867,-44.2556"/>
</g>
<!-- Product -->
<g id="node5" class="node"><title>Product</title>
<ellipse fill="none" stroke="black" cx="317" cy="-195" rx="48.9975" ry="18.3848"/>
<text text-anchor="middle" x="317" y="-191.4" font-family="Times Roman,serif" font-size="14.00">Product</text>
</g>
<!-- Product&#45;&gt;LineItem -->
<g id="edge6" class="edge"><title>Product&#45;&gt;LineItem</title>
<path fill="none" stroke="#a7f613" d="M317,-168.381C317,-135.832 317,-80.9614 317,-47.5551"/>
<ellipse fill="none" stroke="#a7f613" cx="317" cy="-172.498" rx="4" ry="4"/>
<polygon fill="#a7f613" stroke="#a7f613" points="317,-47.5186 321.5,-37.5186 317,-42.5186 317,-37.5186 317,-37.5186 317,-37.5186 317,-42.5186 312.5,-37.5187 317,-47.5186 317,-47.5186"/>
</g>
<!-- Product&#45;&gt;Order -->
<g id="edge8" class="edge"><title>Product&#45;&gt;Order</title>
<path fill="none" stroke="#2297a1" d="M334.514,-168.337C344.487,-153.154 356.929,-134.212 366.843,-119.12"/>
<polygon fill="#2297a1" stroke="#2297a1" points="334.468,-168.406 325.217,-174.294 331.723,-172.585 328.978,-176.764 328.978,-176.764 328.978,-176.764 331.723,-172.585 332.739,-179.235 334.468,-168.406 334.468,-168.406"/>
<polygon fill="#2297a1" stroke="#2297a1" points="366.86,-119.094 376.111,-113.207 369.605,-114.915 372.35,-110.736 372.35,-110.736 372.35,-110.736 369.605,-114.915 368.589,-108.266 366.86,-119.094 366.86,-119.094"/>
</g>
<!-- User -->
<g id="node6" class="node"><title>User</title>
<ellipse fill="none" stroke="black" cx="418" cy="-195" rx="33.9411" ry="18.3848"/>
<text text-anchor="middle" x="418" y="-191.4" font-family="Times Roman,serif" font-size="14.00">User</text>
</g>
<!-- User&#45;&gt;Order -->
<g id="edge10" class="edge"><title>User&#45;&gt;Order</title>
<path fill="none" stroke="#388633" d="M409.311,-168.934C404.441,-154.322 398.363,-136.088 393.384,-121.151"/>
<ellipse fill="none" stroke="#388633" cx="410.657" cy="-172.97" rx="4.00001" ry="4.00001"/>
<polygon fill="#388633" stroke="#388633" points="393.303,-120.908 394.41,-109.999 391.722,-116.165 390.141,-111.422 390.141,-111.422 390.141,-111.422 391.722,-116.165 385.871,-112.845 393.303,-120.908 393.303,-120.908"/>
</g>
</g>
</svg>
